<svg xmlns="http://www.w3.org/2000/svg" width="1200" height="630" viewBox="0 0 1200 630"><rect width="1200" height="630" fill="#f4ebe3"/><circle cx="995" cy="315" r="285" fill="#dec0aa"/><text x="70" y="105" font-family="Georgia,serif" font-size="30" fill="#332a25">Viajadoras</text><text x="70" y="235" font-family="Arial,sans-serif" font-size="19" font-weight="bold" letter-spacing="3" fill="#825134">O QUE A PESQUISA MOSTRA</text><text x="70" y="315" font-family="Georgia,serif" font-size="43" fill="#332a25">Segurança pesa</text><text x="70" y="380" font-family="Georgia,serif" font-size="43" fill="#332a25">na hora de viajar.</text><text x="70" y="535" font-family="Arial,sans-serif" font-size="21" fill="#825134">viajadoras.com/blog</text><rect x="810" y="170" width="300" height="290" rx="28" fill="#fffaf5"/><rect x="850" y="330" width="40" height="90" rx="8" fill="#d9baa1"/><rect x="920" y="270" width="40" height="150" rx="8" fill="#ac7755"/><rect x="990" y="220" width="40" height="200" rx="8" fill="#946549"/><path d="M840 430h210" stroke="#946549" stroke-width="8" stroke-linecap="round"/><path d="M1120 150a30 30 0 0 1 30 30c0 26-30 50-30 50s-30-24-30-50a30 30 0 0 1 30-30z" fill="#ac7755"/><circle cx="1120" cy="180" r="10" fill="#fffaf5"/></svg>