<svg xmlns="http://www.w3.org/2000/svg" width="1200" height="630" viewBox="0 0 1200 630"><rect width="1200" height="630" fill="#f4ebe3"/><circle cx="995" cy="315" r="285" fill="#dec0aa"/><text x="70" y="105" font-family="Georgia,serif" font-size="30" fill="#332a25">Viajadoras</text><text x="70" y="235" font-family="Arial,sans-serif" font-size="19" font-weight="bold" letter-spacing="3" fill="#825134">ROTEIROS NO BRASIL</text><text x="70" y="315" font-family="Georgia,serif" font-size="43" fill="#332a25">Ideias para ir</text><text x="70" y="380" font-family="Georgia,serif" font-size="43" fill="#332a25">por todo o Brasil.</text><text x="70" y="535" font-family="Arial,sans-serif" font-size="21" fill="#825134">viajadoras.com/blog</text><path d="M880 170l120-10 60 70-20 90 40 70-70 70-70-30-60 20-50-90 20-100z" fill="#fffaf5"/><path d="M880 170l120-10 60 70-20 90 40 70-70 70-70-30-60 20-50-90 20-100z" fill="none" stroke="#d9baa1" stroke-width="8" stroke-linejoin="round"/><path d="M890 400q60-90 130-110t50-70" fill="none" stroke="#946549" stroke-width="8" stroke-dasharray="4 18" stroke-linecap="round"/><circle cx="890" cy="400" r="14" fill="#ac7755"/><path d="M1070 160a30 30 0 0 1 30 30c0 26-30 50-30 50s-30-24-30-50a30 30 0 0 1 30-30z" fill="#ac7755"/><circle cx="1070" cy="190" r="10" fill="#fffaf5"/></svg>